<?xml version="1.0" encoding="UTF-8" standalone="no"?>
<!-- This Source Code Form is subject to the terms of the Mozilla Public
   - License, v. 2.0. If a copy of the MPL was not distributed with this
   - file, You can obtain one at http://mozilla.org/MPL/2.0/. -->

<!-- modified by MarsCat to 1. fit a 16x16 viewbox 2. change fill and stroke -->

<!-- modified by stoically to include a plus sign -->

<svg
   xmlns:dc="http://purl.org/dc/elements/1.1/"
   xmlns:cc="http://creativecommons.org/ns#"
   xmlns:rdf="http://www.w3.org/1999/02/22-rdf-syntax-ns#"
   xmlns:svg="http://www.w3.org/2000/svg"
   xmlns="http://www.w3.org/2000/svg"
   xmlns:sodipodi="http://sodipodi.sourceforge.net/DTD/sodipodi-0.dtd"
   xmlns:inkscape="http://www.inkscape.org/namespaces/inkscape"
   width="96"
   height="96"
   viewBox="0 0 96 96"
   version="1.1"
   id="svg69"
   sodipodi:docname="switch_container-96.svg"
   inkscape:version="0.92.2 (unknown)"
   style="fill:#808080;stroke:#ffffff;stroke-width:0.125">
  <metadata
     id="metadata75">
    <rdf:RDF>
      <cc:Work
         rdf:about="">
        <dc:format>image/svg+xml</dc:format>
        <dc:type
           rdf:resource="http://purl.org/dc/dcmitype/StillImage" />
        <dc:title></dc:title>
      </cc:Work>
    </rdf:RDF>
  </metadata>
  <defs
     id="defs73" />
  <sodipodi:namedview
     pagecolor="#ffffff"
     bordercolor="#666666"
     borderopacity="1"
     objecttolerance="10"
     gridtolerance="10"
     guidetolerance="10"
     inkscape:pageopacity="0"
     inkscape:pageshadow="2"
     inkscape:window-width="1920"
     inkscape:window-height="1176"
     id="namedview71"
     showgrid="false"
     inkscape:zoom="5.6071358"
     inkscape:cx="-12.265551"
     inkscape:cy="33.686246"
     inkscape:window-x="1920"
     inkscape:window-y="24"
     inkscape:window-maximized="1"
     inkscape:current-layer="svg69" />
  <path
     d="m 18.478984,34.616533 c -0.226731,0 -0.455344,-0.01586 -0.685863,-0.04999 -2.14071,-0.311779 -3.571002,-2.00358 -3.193118,-3.779998 C 19.283874,8.7301577 35.489427,3.0813353 44.732468,1.6793161 c 15.461123,-2.33879247 31.17353,3.5449998 36.171044,10.5112479 1.110976,1.549275 0.498807,3.551269 -1.371718,4.47081 -1.870528,0.924238 -4.285203,0.408879 -5.394296,-1.138855 C 71.059641,11.230297 58.62159,6.2143494 46.151421,8.0972862 37.318384,9.4382164 26.017765,14.662512 22.354182,31.9207 c -0.338185,1.5806 -1.999008,2.69595 -3.875198,2.69595 z m 31.631618,46.842578 c -1.626278,0 -3.280184,-0.11433 -4.963554,-0.355064 C 30.057467,78.973571 16.922004,67.444803 14.592169,54.293066 c -0.348065,-1.965918 1.064542,-3.822711 3.1531,-4.150079 2.09593,-0.355066 4.064776,1.004608 4.414713,2.967068 1.777304,10.032249 12.376656,19.194982 24.127116,20.857787 6.38724,0.892025 18.305301,0.204381 26.210156,-14.662118 3.816131,-7.179498 -1.060858,-25.085802 -11.275287,-33.566101 -5.735253,-4.761502 -11.693365,-5.279394 -17.697513,-1.51211 -4.678084,2.932421 -9.555079,11.345166 -9.356169,19.18459 0.154705,6.206068 3.252558,11.054173 9.203302,14.41269 2.020414,1.137983 7.775928,1.863728 11.126099,-0.35683 2.620829,-1.737263 3.401739,-5.19797 2.322465,-10.276447 -0.850896,-3.992464 -4.733334,-11.085352 -6.591677,-11.333044 0.0094,0.0033 -0.668561,0.200913 -1.803088,1.801372 -0.913512,1.285209 -1.799404,6.090013 -0.602258,8.192764 0.222838,0.394942 0.418085,0.630483 1.246876,0.630483 2.118031,0 3.836397,1.6143 3.836397,3.607939 0,1.993625 -1.714683,3.611395 -3.832713,3.611395 -3.536187,0 -6.381713,-1.574465 -8.011675,-4.439337 -2.738704,-4.81347 -1.248715,-12.45543 0.98166,-15.604365 3.458835,-4.875819 7.169991,-5.348684 9.67663,-4.875819 8.680234,1.6143 12.593986,16.844539 12.625298,16.995229 2.156707,10.134433 -1.760732,15.159223 -5.42584,17.591072 -6.186487,4.101576 -15.297693,3.012099 -19.493237,0.644333 C 29.020557,58.141763 26.652045,49.664934 26.499181,43.585305 26.217399,32.489563 32.868003,22.237345 39.271818,18.222371 48.138071,12.662376 57.995197,13.42969 66.305238,20.326854 78.505086,30.456096 85.094921,51.757293 79.365188,62.532608 72.867447,74.750742 62.380436,81.459111 50.110602,81.459111 Z m -1.829384,13.383596 c -3.846677,0 -7.292249,-0.482633 -10.188549,-1.134254 -9.462219,-2.125512 -18.243265,-7.364524 -22.921074,-13.676046 -1.15274,-1.558379 -0.684781,-3.65789 1.044326,-4.696264 1.725496,-1.03838 4.0635,-0.614256 5.219851,0.939248 6.135895,8.279406 26.361221,18.494187 47.477306,5.832148 1.729112,-1.035128 4.065305,-0.619125 5.219844,0.939253 1.152739,1.556756 0.686587,3.656261 -1.042522,4.694641 -9.03581,5.416138 -17.625341,7.101274 -24.809182,7.101274 z"
     id="path67"
     inkscape:connector-curvature="0"
     style="stroke-width:0.73518437" />
  <path
     style="fill:#000000;fill-rule:evenodd;stroke:none;stroke-width:9.17207432"
     d="M 57.172076,11.311737 H 38.827928 V 38.827951 H 11.311706 V 57.172095 H 38.827928 V 84.688313 H 57.172076 V 57.172095 H 84.688294 V 38.827951 H 57.172076 Z"
     id="Shape"
     inkscape:connector-curvature="0"
     sodipodi:nodetypes="ccccccccccccc" />
</svg>
