<?xml version="1.0" encoding="UTF-8" standalone="no"?>
<!-- This Source Code Form is subject to the terms of the Mozilla Public
   - License, v. 2.0. If a copy of the MPL was not distributed with this
   - file, You can obtain one at http://mozilla.org/MPL/2.0/. -->

<!-- modified by MarsCat to 1. fit a 16x16 viewbox 2. change fill and stroke -->

<!-- modified by stoically to include a plus sign -->

<svg
   xmlns:dc="http://purl.org/dc/elements/1.1/"
   xmlns:cc="http://creativecommons.org/ns#"
   xmlns:rdf="http://www.w3.org/1999/02/22-rdf-syntax-ns#"
   xmlns:svg="http://www.w3.org/2000/svg"
   xmlns="http://www.w3.org/2000/svg"
   xmlns:sodipodi="http://sodipodi.sourceforge.net/DTD/sodipodi-0.dtd"
   xmlns:inkscape="http://www.inkscape.org/namespaces/inkscape"
   width="32"
   height="32"
   viewBox="0 0 32 32"
   version="1.1"
   id="svg69"
   sodipodi:docname="switch_container-browseraction-dark-32.svg"
   inkscape:version="0.92.2 (unknown)"
   style="fill:#808080;stroke:#ffffff;stroke-width:0.125">
  <metadata
     id="metadata75">
    <rdf:RDF>
      <cc:Work
         rdf:about="">
        <dc:format>image/svg+xml</dc:format>
        <dc:type
           rdf:resource="http://purl.org/dc/dcmitype/StillImage" />
        <dc:title></dc:title>
      </cc:Work>
    </rdf:RDF>
  </metadata>
  <defs
     id="defs73" />
  <sodipodi:namedview
     pagecolor="#ffffff"
     bordercolor="#666666"
     borderopacity="1"
     objecttolerance="10"
     gridtolerance="10"
     guidetolerance="10"
     inkscape:pageopacity="0"
     inkscape:pageshadow="2"
     inkscape:window-width="1920"
     inkscape:window-height="1176"
     id="namedview71"
     showgrid="false"
     inkscape:zoom="22.428543"
     inkscape:cx="-4.7214823"
     inkscape:cy="9.58505"
     inkscape:window-x="1920"
     inkscape:window-y="24"
     inkscape:window-maximized="1"
     inkscape:current-layer="svg69" />
  <path
     d="m 6.1355998,11.527936 c -0.075762,0 -0.1521525,-0.0054 -0.2291798,-0.01671 C 5.1911052,11.407051 4.7131753,10.841739 4.8394449,10.248152 6.404553,2.8780445 11.819612,0.99049992 14.908159,0.52201712 20.074469,-0.25948649 25.324744,1.7065732 26.994656,4.034334 27.365886,4.5520216 27.161331,5.2209851 26.536297,5.5282477 25.911264,5.8370805 25.104404,5.6648743 24.733803,5.1477016 23.705341,3.7134619 19.549187,2.0373917 15.3823,2.666572 12.430755,3.1146413 8.6546712,4.8603316 7.4304909,10.627127 7.3174871,11.155282 6.7625258,11.527976 6.1355998,11.527976 Z M 16.705254,27.180308 c -0.543418,0 -1.096069,-0.0382 -1.658564,-0.118644 C 10.004532,26.349769 5.6153376,22.49745 4.8368271,18.102818 4.7205216,17.44591 5.1925419,16.825465 5.8904304,16.716075 c 0.7003511,-0.118644 1.3582383,0.335689 1.4751688,0.991442 0.5938837,3.35226 4.1356408,6.413972 8.0620368,6.969595 2.134286,0.29807 6.116687,0.0683 8.758082,-4.899322 1.275154,-2.399018 -0.354485,-8.382381 -3.76762,-11.2160594 -1.916425,-1.5910479 -3.907318,-1.7641011 -5.913595,-0.505269 -1.563174,0.9798638 -3.192814,3.7909694 -3.126348,6.4105004 0.0517,2.073747 1.086836,3.693734 3.075268,4.815976 0.675117,0.380256 2.598314,0.622762 3.717768,-0.119234 0.875746,-0.580503 1.136685,-1.736893 0.776048,-3.433858 -0.284325,-1.334075 -1.581637,-3.704152 -2.202599,-3.786918 0.0032,0.0011 -0.223397,0.06714 -0.602499,0.601925 -0.305248,0.42945 -0.601267,2.034969 -0.201243,2.7376 0.07446,0.131969 0.139702,0.210674 0.416642,0.210674 0.707736,0 1.281925,0.539416 1.281925,1.205585 0,0.666169 -0.572958,1.206744 -1.280694,1.206744 -1.181612,0 -2.132439,-0.526105 -2.677088,-1.483397 -0.915134,-1.608414 -0.417257,-4.161962 0.328019,-5.214174 1.155765,-1.629247 2.395842,-1.7872539 3.233431,-1.629247 2.900486,0.539416 4.208259,5.628576 4.218723,5.678928 0.72066,3.386405 -0.588345,5.065431 -1.813035,5.87803 -2.067206,1.370534 -5.1117,1.006487 -6.513634,0.215302 C 9.6580497,19.388853 8.8666154,16.556335 8.8155357,14.524837 8.7213789,10.817212 10.943668,7.3914503 13.083492,6.0498521 c 2.962643,-1.8578629 6.256387,-1.6014659 9.033174,0.7032106 4.076559,3.3846693 6.278542,10.5024303 4.363961,14.1029843 -2.171211,4.082671 -5.675428,6.324261 -9.775373,6.324261 z m -0.611286,4.472108 c -1.285361,0 -2.436693,-0.161272 -3.404487,-0.379009 C 9.5276962,30.56317 6.5935231,28.812563 5.0304411,26.703577 4.645255,26.182848 4.801623,25.481299 5.3794012,25.134328 c 0.5765714,-0.346973 1.3578118,-0.205252 1.7442045,0.313848 2.0502998,2.76655 8.8085603,6.179803 15.8644653,1.948803 0.57778,-0.345886 1.358415,-0.20688 1.744203,0.313851 0.385186,0.520187 0.229421,1.221732 -0.348357,1.568706 -3.019302,1.809794 -5.88948,2.37288 -8.289949,2.37288 z"
     id="path67"
     inkscape:connector-curvature="0"
     style="stroke-width:0.24566068;fill:#bebebe;fill-opacity:1" />
</svg>
