<?xml version="1.0" encoding="UTF-8" standalone="no"?>
<!-- This Source Code Form is subject to the terms of the Mozilla Public
   - License, v. 2.0. If a copy of the MPL was not distributed with this
   - file, You can obtain one at http://mozilla.org/MPL/2.0/. -->

<!-- modified by MarsCat to 1. fit a 16x16 viewbox 2. change fill and stroke -->

<!-- modified by stoically to include a plus sign -->

<svg
   xmlns:dc="http://purl.org/dc/elements/1.1/"
   xmlns:cc="http://creativecommons.org/ns#"
   xmlns:rdf="http://www.w3.org/1999/02/22-rdf-syntax-ns#"
   xmlns:svg="http://www.w3.org/2000/svg"
   xmlns="http://www.w3.org/2000/svg"
   xmlns:sodipodi="http://sodipodi.sourceforge.net/DTD/sodipodi-0.dtd"
   xmlns:inkscape="http://www.inkscape.org/namespaces/inkscape"
   width="48"
   height="48"
   viewBox="0 0 48 48"
   version="1.1"
   id="svg69"
   sodipodi:docname="switch_container-48.svg"
   inkscape:version="0.92.2 (unknown)"
   style="fill:#808080;stroke:#ffffff;stroke-width:0.125">
  <metadata
     id="metadata75">
    <rdf:RDF>
      <cc:Work
         rdf:about="">
        <dc:format>image/svg+xml</dc:format>
        <dc:type
           rdf:resource="http://purl.org/dc/dcmitype/StillImage" />
        <dc:title></dc:title>
      </cc:Work>
    </rdf:RDF>
  </metadata>
  <defs
     id="defs73" />
  <sodipodi:namedview
     pagecolor="#ffffff"
     bordercolor="#666666"
     borderopacity="1"
     objecttolerance="10"
     gridtolerance="10"
     guidetolerance="10"
     inkscape:pageopacity="0"
     inkscape:pageshadow="2"
     inkscape:window-width="1920"
     inkscape:window-height="1176"
     id="namedview71"
     showgrid="false"
     inkscape:zoom="7.9296874"
     inkscape:cx="-15.02984"
     inkscape:cy="33.067485"
     inkscape:window-x="1920"
     inkscape:window-y="24"
     inkscape:window-maximized="1"
     inkscape:current-layer="svg69" />
  <path
     d="m 9.4784487,17.416598 c -0.1115303,0 -0.2239863,-0.0078 -0.3373796,-0.02459 C 8.088042,17.238642 7.3844733,16.406436 7.5703569,15.532606 9.8743787,4.6829467 17.84598,1.9042601 22.392683,1.2145986 29.998095,0.06413384 37.727115,2.9584039 40.18542,6.38514 40.731915,7.1472368 40.430786,8.1320294 39.510664,8.5843558 38.590541,9.0389939 37.402749,8.7854862 36.85718,8.0241474 35.343165,5.9127787 29.224819,3.4454073 23.090674,4.3716343 18.745654,5.0312448 13.186817,7.6011053 11.38468,16.090503 11.218325,16.868009 10.401357,17.416656 9.4784487,17.416656 Z M 25.038217,40.458722 c -0.799975,0 -1.613541,-0.05624 -2.4416,-0.174658 C 15.173969,39.236071 8.7125618,33.565006 7.5665033,27.095594 7.3952878,26.128548 8.0901569,25.215181 9.1175306,25.054147 c 1.0309994,-0.174659 1.9994854,0.494172 2.1716214,1.459517 0.874266,4.934919 6.088146,9.442118 11.868262,10.260061 3.141919,0.438792 9.004479,0.100536 12.892921,-7.212377 1.877176,-3.531635 -0.521842,-12.339845 -5.546376,-16.511351 -2.821203,-2.342209 -5.752031,-2.596963 -8.705505,-0.743815 -2.301175,1.442474 -4.700196,5.58075 -4.602351,9.437006 0.0761,3.052799 1.599951,5.437609 4.527155,7.089682 0.993853,0.55978 3.825022,0.916778 5.47299,-0.175527 1.2892,-0.854569 1.673334,-2.55691 1.142433,-5.055041 -0.41856,-1.963915 -2.328353,-5.452946 -3.242482,-5.574787 0.0046,0.0016 -0.328869,0.09883 -0.886949,0.886105 -0.449362,0.632201 -0.885137,2.995711 -0.296254,4.030066 0.109615,0.194274 0.205658,0.310138 0.613345,0.310138 1.041871,0 1.887145,0.794083 1.887145,1.774765 0,0.980675 -0.843462,1.776465 -1.885333,1.776465 -1.73947,0 -3.1392,-0.774488 -3.940987,-2.183734 -1.347184,-2.367773 -0.61425,-6.126895 0.482884,-7.675874 1.70142,-2.398442 3.526958,-2.631047 4.759988,-2.398442 4.269855,0.794083 6.195051,8.285922 6.210454,8.360047 1.060896,4.985184 -0.866114,7.456906 -2.669001,8.653146 -3.043167,2.017588 -7.52502,1.481668 -9.588831,0.316951 -5.118753,-2.888359 -6.283837,-7.058158 -6.359032,-10.048761 -0.13861,-5.458057 3.132859,-10.50118 6.282931,-12.4761683 4.361359,-2.7349918 9.210134,-2.3575453 13.297889,1.0352073 6.001173,4.98263 9.242749,15.460807 6.424262,20.761244 -3.196275,6.010168 -8.354894,9.310052 -14.390493,9.310052 z m -0.899884,6.583465 c -1.892202,0 -3.587098,-0.23741 -5.011804,-0.557946 C 14.472011,45.43869 10.152566,42.861591 7.8515258,39.756918 7.2844867,38.990343 7.5146786,37.957582 8.3652357,37.4468 c 0.8487808,-0.510785 1.9988583,-0.302156 2.5676733,0.462021 3.018281,4.072686 12.967231,9.097393 23.35435,2.868866 0.85056,-0.509185 1.999746,-0.304551 2.56767,0.462024 0.567039,0.765777 0.337736,1.798535 -0.512822,2.30932 -4.444765,2.664228 -8.670003,3.493156 -12.203774,3.493156 z"
     id="path67"
     inkscape:connector-curvature="0"
     style="stroke-width:0.36164126" />
  <path
     style="fill:#000000;fill-rule:evenodd;stroke:none;stroke-width:4.51179409"
     d="M 28.511795,5.9528398 H 19.488207 V 19.488218 H 5.9528252 v 9.023586 H 19.488207 v 13.53538 h 9.023588 v -13.53538 h 13.53538 v -9.023586 h -13.53538 z"
     id="Shape"
     inkscape:connector-curvature="0"
     sodipodi:nodetypes="ccccccccccccc" />
</svg>
